<svg width="128" height="128" viewBox="0 0 128 128" xmlns="http://www.w3.org/2000/svg"><title>logo</title><path d="M64 128C28.654 128 0 99.346 0 64 0 28.654 28.654 0 64 0c35.346 0 64 28.654 64 64 0 35.346-28.654 64-64 64zm0-20c17.644 0 31.999-14.5 32-32 0-17.497-28.901-53.575-30-55-.589-.67-1.275-1-2-1-.726 0-1.412.33-2 1-1.1 1.426-30 37.503-30 55 0 17.5 14.355 32 32 32zm-2-12c-.905 0-2-1.097-2-2 0-1.803 1.096-2.9 2-3 9.631.1 17.101-7.368 17-17 .101-.904 1.198-2 3-2 .904 0 2 1.096 2 2 0 12.332-9.668 22-22 22z" fill="#FFF" fill-rule="evenodd"/></svg>